<svg width="48" height="48" viewBox="0 0 48 48" fill="none" xmlns="http://www.w3.org/2000/svg">
<g clip-path="url(#clip0_3_2221)">
<path fill-rule="evenodd" clip-rule="evenodd" d="M9.96976 4C7.23092 4 5.20434 6.39716 5.29506 8.99688C5.3821 11.4945 5.26902 14.7292 4.45464 17.3672C3.63784 20.0128 2.2564 21.6888 0 21.904V24.3332C2.2564 24.5484 3.63784 26.2244 4.45464 28.8702C5.26902 31.508 5.3821 34.7428 5.29506 37.2404C5.20434 39.8398 7.23092 42.2372 9.97016 42.2372H38.0338C40.7728 42.2372 42.799 39.8402 42.7082 37.2404C42.6212 34.7428 42.7342 31.508 43.5486 28.8702C44.3658 26.2244 45.7436 24.5484 48 24.3332V21.904C45.7436 21.6888 44.3658 20.0128 43.5486 17.3672C42.7342 14.7296 42.6212 11.4945 42.7082 8.99688C42.799 6.39756 40.7728 4 38.0338 4H9.96976ZM32.5424 27.5374C32.5424 31.1172 29.8722 33.2882 25.4412 33.2882H17.8983C17.6825 33.2882 17.4756 33.2024 17.323 33.0498C17.1705 32.8972 17.0847 32.6904 17.0847 32.4746V13.7627C17.0847 13.5469 17.1705 13.34 17.323 13.1874C17.4756 13.0349 17.6825 12.9492 17.8983 12.9492H25.3982C29.0928 12.9492 31.5176 14.9505 31.5176 18.0233C31.5176 20.18 29.8866 22.111 27.8082 22.449V22.5618C30.6374 22.8722 32.5424 24.8312 32.5424 27.5374ZM24.6188 15.5281H20.3178V21.603H23.9402C26.7404 21.603 28.2846 20.4754 28.2846 18.4598C28.2846 16.5711 26.9568 15.5281 24.6188 15.5281ZM20.3178 24.0136V30.7084H24.777C27.6924 30.7084 29.2368 29.5384 29.2368 27.3398C29.2368 25.1408 27.6492 24.0132 24.5894 24.0132L20.3178 24.0136Z" fill="#D9D9D9"/>
</g>
<defs>
<clipPath id="clip0_3_2221">
<rect width="48" height="48" fill="white"/>
</clipPath>
</defs>
</svg>
