<svg width="48" height="48" viewBox="0 0 48 48" fill="none" xmlns="http://www.w3.org/2000/svg">
<path d="M19.1309 4.37635V6.44053H13.8526V0.046875H19.1309V2.30906H16.1148V4.37635H19.1309ZM24.5569 2.30906H26.6655V0.046875H21.3866C21.3866 0.046875 21.3866 1.18238 21.3866 2.30906C22.0929 3.01528 22.4611 3.35335 23.4825 4.37475C22.8854 4.37475 21.3866 4.37672 21.3866 4.37672V6.44053H26.6655V4.37635L24.5569 2.30906ZM32.0386 2.30906H34.147V0.046875H28.8684C28.8684 0.046875 28.8684 1.18238 28.8684 2.30906C29.5744 3.01528 29.9428 3.35335 30.9641 4.37475C30.3674 4.37475 28.8684 4.37672 28.8684 4.37672V6.44053H34.1471V4.37635L32.0386 2.30906ZM41.0994 9.47916L37.8929 44.2122L23.9998 47.9529L10.1065 44.2122L6.90039 9.47916H41.0994ZM34.6384 16.5415H23.9873H13.1479L13.6662 20.7358H23.9873H24.567L23.9873 20.9771L14.0435 25.1187L14.3733 29.2184L23.9873 29.2496L29.14 29.266L28.81 34.7327L23.9873 36.0906V36.0863L23.9477 36.0971L19.2898 34.9213L19.0072 31.528H18.9918H14.6713H14.6561L15.2216 38.0789L23.9873 40.671V40.6663L24.003 40.671L32.7218 38.1261L33.853 25.1188H23.9873H23.9629L23.9873 25.1083L34.2141 20.7359L34.6384 16.5415Z" fill="#D9D9D9"/>
</svg>
