<svg width="48" height="48" viewBox="0 0 48 48" fill="none" xmlns="http://www.w3.org/2000/svg">
<g clip-path="url(#clip0_3_2203)">
<mask id="mask0_3_2203" style="mask-type:luminance" maskUnits="userSpaceOnUse" x="0" y="0" width="48" height="48">
<path d="M48 0H0V48H48V0Z" fill="white"/>
</mask>
<g mask="url(#mask0_3_2203)">
<path d="M10.1611 0H12.3246V2.1375H14.3037V0H16.4672V6.47288H14.3038V4.30538H12.3247V6.47288H10.1612L10.1611 0Z" fill="#D9D9D9"/>
<path d="M19.3124 2.1465H17.4077V0H23.3815V2.1465H21.4759V6.47288H19.3124L19.3124 2.1465Z" fill="#D9D9D9"/>
<path d="M24.3296 0H26.5856L27.9732 2.27438L29.3594 0H31.6162V6.47288H29.4616V3.26456L27.9732 5.56604H27.936L26.4464 3.26456V6.47288H24.3296V0Z" fill="#D9D9D9"/>
<path d="M32.6929 0H34.8571V4.33332H37.8995V6.47288H32.6929V0Z" fill="#D9D9D9"/>
<path fill-rule="evenodd" clip-rule="evenodd" d="M10.0919 44.1448L6 9.43311H42L37.9054 44.1394L23.9794 48L10.0919 44.1448ZM18.3669 25.1453L17.9778 20.7857H34.2686L34.6498 16.5285H13.3252L14.4734 29.4025H29.2276L28.7336 34.9238L23.9854 36.2054L23.982 36.2068L19.2408 34.9266L18.9377 31.5312H14.6641L15.2605 38.2158L23.9812 40.6366L32.713 38.2156L33.7774 26.2886L33.8812 25.1453H18.3669Z" fill="#D9D9D9"/>
</g>
</g>
<defs>
<clipPath id="clip0_3_2203">
<rect width="48" height="48" fill="white"/>
</clipPath>
</defs>
</svg>
