<svg class="react-icon icon" width="48" height="48" viewBox="0 0 48 48" fill="none" xmlns="http://www.w3.org/2000/svg">
<path d="M21.4693 33.3163C22.2943 33.3538 23.1373 33.3808 23.9908 33.3808C24.8533 33.3808 25.7053 33.3628 26.5408 33.3163C25.7053 34.3963 24.8803 35.3518 24.0073 36.2623L24.0193 36.2503C23.1508 35.3503 22.3168 34.3933 21.5308 33.3973L21.4693 33.3163ZM12.9223 32.1163C14.5468 32.5288 16.5283 32.8798 18.5503 33.0958L18.7468 33.1123C19.9843 34.8118 21.2353 36.3073 22.5778 37.7143L22.5613 37.6963C20.5948 39.8908 17.9413 41.4328 14.9398 41.9863L14.8573 41.9983C14.8513 41.9983 14.8453 41.9983 14.8393 41.9983C14.4673 41.9983 14.1163 41.9068 13.8088 41.7448L13.8208 41.7508C12.5728 41.0383 12.0313 38.3128 12.4528 34.8103C12.5533 33.9478 12.7183 33.0403 12.9208 32.1148L12.9223 32.1163ZM35.0968 32.0968C35.2738 32.8078 35.4403 33.7138 35.5588 34.6348L35.5723 34.7638C36.0028 38.2648 35.4718 40.9873 34.2343 41.7148C33.9583 41.8678 33.6283 41.9578 33.2773 41.9578C33.2428 41.9578 33.2083 41.9563 33.1738 41.9548H33.1783C30.0988 41.3923 27.4468 39.8608 25.4848 37.6933L25.4743 37.6813C26.7928 36.2968 28.0348 34.8043 29.1733 33.2338L29.2603 33.1078C31.4743 32.8768 33.4588 32.5198 35.3923 32.0323L35.0968 32.0953V32.0968ZM14.6758 26.4988C15.0508 27.2338 15.4438 27.9658 15.8758 28.7008C16.3068 29.4318 16.7473 30.1458 17.1973 30.8428C15.8953 30.6523 14.6383 30.4123 13.4368 30.1198C13.7743 28.9393 14.1973 27.7168 14.6743 26.4958L14.6758 26.4988ZM33.3178 26.4613C33.8143 27.6928 34.2358 28.9213 34.5853 30.1123C33.3853 30.4063 32.1178 30.6553 30.8068 30.8428C31.2568 30.1393 31.7068 29.4148 32.1283 28.6723C32.5498 27.9418 32.9443 27.1948 33.3208 26.4598L33.3178 26.4613ZM11.4283 18.4378C12.0823 20.6548 12.7843 22.5088 13.6018 24.2968L13.4893 24.0238C12.7903 25.5313 12.0988 27.3748 11.5318 29.2723L11.4538 29.5798C10.3948 29.2543 9.54283 28.9348 8.71333 28.5763L8.88583 28.6423C5.63982 27.2608 3.53982 25.4443 3.53982 24.0043C3.53982 22.5643 5.63982 20.7388 8.88583 19.3633C9.67333 19.0258 10.5373 18.7213 11.4283 18.4378ZM36.5368 18.4303C37.4443 18.7108 38.3068 19.0243 39.1138 19.3633C42.3598 20.7508 44.4598 22.5643 44.4598 24.0043C44.4508 25.4443 42.3508 27.2653 39.1048 28.6438C38.3173 28.9813 37.4548 29.2843 36.5653 29.5678C35.9053 27.3433 35.2033 25.4908 34.3888 23.6998L34.5028 23.9818C35.1988 22.4758 35.8918 20.6323 36.4573 18.7348L36.5368 18.4258V18.4303ZM30.7948 17.1658C32.0983 17.3593 33.3538 17.5963 34.5553 17.8918C34.2178 19.0768 33.7963 20.2948 33.3178 21.5158C32.9428 20.7853 32.5498 20.0488 32.1178 19.3153C31.6963 18.5803 31.2463 17.8648 30.7963 17.1673L30.7948 17.1658ZM17.1868 17.1658C16.7368 17.8723 16.2868 18.5953 15.8668 19.3408C15.4453 20.0713 15.0508 20.8063 14.6758 21.5413C14.1793 20.3113 13.7578 19.0858 13.4083 17.8918C14.6083 17.6113 15.8728 17.3608 17.1853 17.1688L17.1868 17.1658ZM23.9998 16.6888C25.3873 16.6888 26.7688 16.7518 28.1278 16.8628C28.8888 17.9538 29.6278 19.1158 30.3448 20.3488C31.0418 21.5488 31.6778 22.7648 32.2528 23.9968C31.6753 25.2253 31.0423 26.4523 30.3538 27.6523C29.6413 28.8898 28.9048 30.0673 28.1413 31.1578C26.7763 31.2763 25.3933 31.3408 23.9983 31.3408C22.6108 31.3408 21.2293 31.2748 19.8703 31.1668C19.1098 30.0763 18.3673 28.9093 17.6533 27.6808C16.9563 26.4808 16.3203 25.2648 15.7453 24.0328C16.3138 22.8013 16.9558 21.5713 17.6443 20.3698C18.3568 19.1323 19.0933 17.9593 19.8568 16.8688C21.2218 16.7488 22.6048 16.6858 23.9998 16.6858V16.6888ZM23.9713 11.7673C24.8413 12.6673 25.6753 13.6228 26.4598 14.6188L26.5198 14.6983C25.6948 14.6608 24.8518 14.6353 23.9983 14.6353C23.1358 14.6353 22.2838 14.6533 21.4483 14.6983C22.2823 13.6183 23.1073 12.6628 23.9818 11.7523L23.9698 11.7643L23.9713 11.7673ZM14.8198 6.04932C17.8993 6.61332 20.5498 8.14482 22.5133 10.3108L22.5238 10.3228C21.2053 11.7088 19.9633 13.2013 18.8248 14.7748L18.7378 14.9008C16.5253 15.1303 14.5408 15.4843 12.6088 15.9718L12.9028 15.9088C12.6928 14.9908 12.5368 14.1013 12.4273 13.2478C11.9968 9.74682 12.5278 7.02432 13.7653 6.29982C14.0743 6.15432 14.4358 6.06432 14.8168 6.05232H14.8213L14.8198 6.04932ZM33.1348 6.01182V6.02382C33.1543 6.02382 33.1768 6.02232 33.2008 6.02232C33.5593 6.02232 33.8968 6.11082 34.1938 6.26682L34.1818 6.26082C35.4298 6.97632 35.9713 9.70032 35.5498 13.2043C35.4493 14.0668 35.2843 14.9758 35.0818 15.9028C33.4543 15.4858 31.4728 15.1333 29.4508 14.9188L29.2588 14.9023C28.0198 13.2013 26.7688 11.7058 25.4263 10.2973L25.4443 10.3153C27.4108 8.12532 30.0598 6.58332 33.0553 6.02682L33.1393 6.01332L33.1348 6.01182ZM33.1438 3.96882C29.4808 4.52532 26.3098 6.30432 23.9938 8.87082L23.9818 8.88432C21.6493 6.31932 18.4783 4.55232 14.9053 4.01682L14.8213 4.00632C14.8018 4.00632 14.7778 4.00632 14.7538 4.00632C14.0173 4.00632 13.3258 4.19982 12.7273 4.53882L12.7483 4.52832C10.1713 6.01482 9.59383 10.6468 10.9243 16.4593C5.21833 18.2218 1.50732 21.0388 1.50732 24.0073C1.50732 26.9878 5.23783 29.8123 10.9603 31.5613C9.64033 37.3963 10.2298 42.0358 12.8128 43.5208C13.3798 43.8463 14.0608 44.0368 14.7853 44.0368C14.8183 44.0368 14.8513 44.0368 14.8828 44.0353H14.8783C18.5413 43.4788 21.7123 41.6983 24.0283 39.1303L24.0403 39.1168C26.3728 41.6833 29.5438 43.4503 33.1168 43.9858L33.2008 43.9963C33.2233 43.9963 33.2518 43.9963 33.2788 43.9963C34.0108 43.9963 34.6993 43.8043 35.2948 43.4698L35.2738 43.4803C37.8493 41.9953 38.4283 37.3633 37.0978 31.5493C42.7828 29.8018 46.4938 26.9788 46.4938 24.0058C46.4938 21.0253 42.7633 18.2008 37.0408 16.4473C38.3608 10.6183 37.7713 5.97432 35.1883 4.48782C34.6153 4.15932 33.9283 3.96582 33.1963 3.96582C33.1768 3.96582 33.1573 3.96582 33.1378 3.96582H33.1408L33.1438 3.96882ZM28.1803 24.0073C28.1803 26.3218 26.3038 28.1983 23.9893 28.1983C21.6748 28.1983 19.7983 26.3218 19.7983 24.0073C19.7983 21.6928 21.6748 19.8163 23.9893 19.8163C25.1473 19.8163 26.1943 20.2858 26.9533 21.0433C27.7123 21.8023 28.1803 22.8493 28.1803 24.0073Z" fill="#D9D9D9"/>
</svg>
